# xmcd CD database file
#
# Track frame offsets:
#	150
#	24174
#	45006
#	68273
#	86951
#	115055
#	139174
#	162954
#	185563
#	207540
#
# Disc length: 3047 seconds
#
# Revision: 1
# Processed by: cddbd v1.5.2PL0 Copyright (c) Steve Scherf et al.
# Submitted via: CDex 1.51
#
DISCID=7c0be50a
DTITLE=Grupo Niche - La Danza de la Chancaca [CD 2)
DYEAR=2001
DGENRE=Salsa
TTITLE0=Tapando El Hueco
TTITLE1=Cali Pachanguero
TTITLE2=Han Cogido La Cosa
TTITLE3=Me Sabe A Peru
TTITLE4=Sin Palabras
TTITLE5=Atrateno
TTITLE6=Se Parecio Tanto A Ti
TTITLE7=Buscare La Forma
TTITLE8=La Pandereta
TTITLE9=La Magia De Tus Besos
EXTD=YEAR: 2001
EXTT0=
EXTT1=
EXTT2=
EXTT3=
EXTT4=
EXTT5=
EXTT6=
EXTT7=
EXTT8=
EXTT9=
PLAYORDER=
